<svg width="50" height="50" viewBox="0 0 50 50" fill="none" xmlns="http://www.w3.org/2000/svg">
<path d="M44.5397 23.9584C43.0617 28.8526 40.3885 33.3019 36.7612 36.9048C33.1339 40.5078 28.6667 43.1509 23.7626 44.5959L5.4043 26.2375C6.84896 21.3331 9.49199 16.8654 13.0949 13.2378C16.6979 9.61009 21.1473 6.93655 26.0418 5.45837L44.5418 23.9584H44.5397ZM28.5814 19.2084L19.2064 28.5834C19.0572 28.7276 18.9383 28.9001 18.8565 29.0907C18.7747 29.2814 18.7317 29.4864 18.73 29.6939C18.7283 29.9014 18.7679 30.1071 18.8465 30.2991C18.9252 30.4911 19.0413 30.6655 19.1881 30.8121C19.3348 30.9588 19.5094 31.0747 19.7014 31.1532C19.8935 31.2316 20.0992 31.2711 20.3067 31.2692C20.5142 31.2673 20.7192 31.2241 20.9098 31.1421C21.1004 31.0601 21.2727 30.941 21.4168 30.7917L30.7918 21.4167C30.9453 21.2737 31.0684 21.1012 31.1538 20.9095C31.2392 20.7178 31.2852 20.5109 31.2889 20.3011C31.2926 20.0913 31.254 19.8829 31.1754 19.6884C31.0968 19.4938 30.9798 19.3171 30.8315 19.1687C30.6831 19.0203 30.5063 18.9034 30.3118 18.8248C30.1172 18.7462 29.9088 18.7076 29.699 18.7113C29.4892 18.715 29.2823 18.7609 29.0907 18.8463C28.899 18.9317 28.7265 19.0549 28.5835 19.2084H28.5814Z" fill="#5646A3"/>
<path d="M4.58341 29.8334L20.1667 45.4167C18.5209 45.6917 16.8292 45.8334 15.1042 45.8334H13.0209C10.6726 45.8334 8.42055 44.9005 6.76007 43.2401C5.0996 41.5796 4.16675 39.3275 4.16675 36.9792V34.8959C4.16675 33.1709 4.30841 31.4792 4.58341 29.8334Z" fill="#5646A3"/>
<path d="M29.6189 4.61877L45.3814 20.3813C45.6793 18.6667 45.8335 16.9021 45.8335 15.1042V13.0209C45.8335 10.6726 44.9006 8.42049 43.2402 6.76001C41.5797 5.09953 39.3276 4.16669 36.9793 4.16669H34.896C33.096 4.16669 31.3335 4.32085 29.6189 4.61877Z" fill="#5646A3"/>
</svg>
