<svg width="50" height="50" viewBox="0 0 50 50" fill="none" xmlns="http://www.w3.org/2000/svg">
<path d="M45.8 25.4917C45.8745 22.6749 45.3749 19.8725 44.3315 17.255C43.2882 14.6375 41.723 12.2598 39.7312 10.2667C37.7381 8.27494 35.3604 6.70974 32.7429 5.66641C30.1255 4.62307 27.323 4.12344 24.5062 4.19793C24.7799 7.26263 24.2985 10.3477 23.1042 13.1833L19.2708 11.5583C20.177 9.39795 20.5527 7.05201 20.3667 4.71668C16.5427 5.5733 13.0407 7.49875 10.2687 10.2688C7.49598 13.0431 5.56962 16.549 4.71458 20.3771C6.52361 20.5171 8.34293 20.3221 10.0812 19.8021L11.2792 23.7938C8.9875 24.4813 6.57708 24.7167 4.2 24.5104C4.12555 27.3269 4.62521 30.129 5.66855 32.7461C6.71189 35.3632 8.27707 37.7406 10.2687 39.7334C12.2616 41.7249 14.6389 43.29 17.256 44.3334C19.8732 45.3767 22.6752 45.8764 25.4917 45.8021C25.2806 43.4183 25.5238 41.0161 26.2083 38.7229L30.2 39.9209C29.6789 41.659 29.484 43.4785 29.625 45.2875C33.4537 44.4325 36.9603 42.5062 39.7354 39.7334C42.5059 36.9609 44.4314 33.4581 45.2875 29.6334C42.9522 29.4483 40.6065 29.824 38.4458 30.7292L36.8208 26.8938C39.6542 25.6992 42.7373 25.2178 45.8 25.4917ZM19.1042 19.1104C17.7606 20.4544 16.2208 21.5868 14.5375 22.4688L12.6062 18.7771C14.7701 17.6442 16.6153 15.9867 17.9729 13.9563L21.4375 16.275C20.7542 17.2958 19.9687 18.25 19.1042 19.1104ZM33.8417 33.8354C32.7929 34.8815 31.9098 36.0814 31.2229 37.3938L27.5312 35.4625C28.9869 32.6818 31.1155 30.3097 33.7229 28.5625L36.0417 32.0271C35.251 32.5565 34.5141 33.1622 33.8417 33.8354Z" fill="#5646A3"/>
</svg>
