<svg width="22" height="22" viewBox="0 0 22 22" fill="none" xmlns="http://www.w3.org/2000/svg">
<path d="M10.9803 5.10938C13.9335 5.10938 16.371 7.54688 16.371 10.5C16.371 13.5 13.9335 15.8906 10.9803 15.8906C7.98035 15.8906 5.58972 13.5 5.58972 10.5C5.58972 7.54688 7.98035 5.10938 10.9803 5.10938ZM10.9803 14.0156C12.9022 14.0156 14.4491 12.4688 14.4491 10.5C14.4491 8.57812 12.9022 7.03125 10.9803 7.03125C9.0116 7.03125 7.46472 8.57812 7.46472 10.5C7.46472 12.4688 9.05847 14.0156 10.9803 14.0156ZM17.8241 4.92188C17.8241 5.625 17.2616 6.1875 16.5585 6.1875C15.8553 6.1875 15.2928 5.625 15.2928 4.92188C15.2928 4.21875 15.8553 3.65625 16.5585 3.65625C17.2616 3.65625 17.8241 4.21875 17.8241 4.92188ZM21.3866 6.1875C21.4803 7.92188 21.4803 13.125 21.3866 14.8594C21.2928 16.5469 20.9178 18 19.6991 19.2656C18.4803 20.4844 16.9803 20.8594 15.2928 20.9531C13.5585 21.0469 8.35535 21.0469 6.62097 20.9531C4.93347 20.8594 3.48035 20.4844 2.21472 19.2656C0.995972 18 0.620972 16.5469 0.527222 14.8594C0.433472 13.125 0.433472 7.92188 0.527222 6.1875C0.620972 4.5 0.995972 3 2.21472 1.78125C3.48035 0.5625 4.93347 0.1875 6.62097 0.09375C8.35535 0 13.5585 0 15.2928 0.09375C16.9803 0.1875 18.4803 0.5625 19.6991 1.78125C20.9178 3 21.2928 4.5 21.3866 6.1875ZM19.1366 16.6875C19.6991 15.3281 19.5585 12.0469 19.5585 10.5C19.5585 9 19.6991 5.71875 19.1366 4.3125C18.7616 3.42188 18.0585 2.67188 17.1678 2.34375C15.7616 1.78125 12.4803 1.92188 10.9803 1.92188C9.43347 1.92188 6.15222 1.78125 4.79285 2.34375C3.85535 2.71875 3.15222 3.42188 2.77722 4.3125C2.21472 5.71875 2.35535 9 2.35535 10.5C2.35535 12.0469 2.21472 15.3281 2.77722 16.6875C3.15222 17.625 3.85535 18.3281 4.79285 18.7031C6.15222 19.2656 9.43347 19.125 10.9803 19.125C12.4803 19.125 15.7616 19.2656 17.1678 18.7031C18.0585 18.3281 18.8085 17.625 19.1366 16.6875Z" fill="#F5F5F5"/>
</svg>
