<svg width="25" height="25" viewBox="0 0 25 25" fill="none" xmlns="http://www.w3.org/2000/svg">
<path d="M12.4803 0.875C18.9022 0.875 24.1053 6.07812 24.1053 12.5C24.1053 18.9219 18.9022 24.125 12.4803 24.125C6.05847 24.125 0.855347 18.9219 0.855347 12.5C0.855347 6.07812 6.05847 0.875 12.4803 0.875ZM20.4022 16.7656C20.496 16.5312 20.3553 16.3438 20.1678 16.2969C18.0116 15.9219 17.0272 13.6719 16.9803 13.5781C16.8866 13.3438 16.8397 13.1562 16.8866 13.0156C17.0272 12.6875 17.496 12.5469 17.7772 12.4531C17.871 12.4531 17.9647 12.4062 18.0116 12.3594C18.5741 12.1719 18.8553 11.8906 18.8085 11.6094C18.8085 11.375 18.621 11.1406 18.3397 11.0469C18.1522 10.9531 17.871 10.9531 17.6835 11.0469C17.4491 11.1875 17.2147 11.2344 17.0272 11.2344C16.8866 11.2344 16.7928 11.1875 16.746 11.1875C16.7928 10.0625 16.9803 8.46875 16.5585 7.57812C15.8085 5.84375 14.2616 5 12.621 5C12.5741 5 12.3397 5 12.2928 5C11.6366 5 9.43347 5.1875 8.35535 7.57812C7.98035 8.46875 8.12097 10.0625 8.16785 11.1875C8.12097 11.1875 8.02722 11.2344 7.8866 11.2344C7.65222 11.2344 7.41785 11.1875 7.1366 11.0469C6.80847 10.9062 6.1991 11.1406 6.10535 11.5156C6.05847 11.75 6.15222 12.0781 6.90222 12.4062C7.18347 12.5 7.8866 12.6406 8.02722 13.0156C8.12097 13.1562 8.0741 13.3438 7.98035 13.5781C7.93347 13.5781 7.93347 13.625 7.93347 13.625C7.8866 13.7188 6.9491 15.9219 4.74597 16.2969C4.60535 16.2969 4.46472 16.4844 4.46472 16.625C4.5116 17.2812 5.96472 17.5156 6.62097 17.6562C6.66785 17.7031 6.71472 18.0781 6.80847 18.4062C6.85535 18.5 6.9491 18.6875 7.23035 18.6875C7.46472 18.6875 7.83972 18.5 8.40222 18.5C9.24597 18.5 9.52722 18.6875 10.1835 19.1562C10.6522 19.4844 11.4491 20.0938 12.4335 20C13.4178 20.0469 14.0741 19.625 14.7303 19.1562C15.3866 18.6875 15.6678 18.5 16.5116 18.5C17.121 18.5 17.4022 18.6406 17.7303 18.6406C17.9178 18.6406 18.0585 18.5469 18.1053 18.3594C18.1991 18.0781 18.246 17.7031 18.2928 17.6562C19.5585 17.4219 20.2616 17.1406 20.4022 16.7656Z" fill="#F5F5F5"/>
</svg>
