<svg width="25" height="21" viewBox="0 0 25 21" fill="none" xmlns="http://www.w3.org/2000/svg">
<path d="M21.996 5.625C21.996 5.85938 21.996 6.04688 21.996 6.28125C21.996 12.7969 17.0741 20.25 8.02722 20.25C5.21472 20.25 2.6366 19.4531 0.480347 18.0469C0.855347 18.0938 1.23035 18.1406 1.65222 18.1406C3.9491 18.1406 6.05847 17.3438 7.74597 16.0312C5.58972 15.9844 3.7616 14.5781 3.15222 12.6094C3.48035 12.6562 3.7616 12.7031 4.08972 12.7031C4.5116 12.7031 4.98035 12.6094 5.35535 12.5156C3.10535 12.0469 1.41785 10.0781 1.41785 7.6875V7.64062C2.0741 8.01562 2.87097 8.20312 3.66785 8.25C2.30847 7.35938 1.46472 5.85938 1.46472 4.17188C1.46472 3.23438 1.6991 2.39062 2.12097 1.6875C4.55847 4.64062 8.21472 6.60938 12.2928 6.84375C12.1991 6.46875 12.1522 6.09375 12.1522 5.71875C12.1522 3 14.3553 0.796875 17.0741 0.796875C18.4803 0.796875 19.746 1.35938 20.6835 2.34375C21.7616 2.10938 22.8397 1.6875 23.7772 1.125C23.4022 2.29688 22.6522 3.23438 21.621 3.84375C22.6053 3.75 23.5897 3.46875 24.4335 3.09375C23.7772 4.07812 22.9335 4.92188 21.996 5.625Z" fill="#F5F5F5"/>
</svg>
