<svg width="26" height="19" viewBox="0 0 26 19" fill="none" xmlns="http://www.w3.org/2000/svg">
<path d="M25.2147 3.35938C25.7772 5.32812 25.7772 9.54688 25.7772 9.54688C25.7772 9.54688 25.7772 13.7188 25.2147 15.7344C24.9335 16.8594 24.0428 17.7031 22.9647 17.9844C20.9491 18.5 12.9803 18.5 12.9803 18.5C12.9803 18.5 4.96472 18.5 2.9491 17.9844C1.87097 17.7031 0.980347 16.8594 0.699097 15.7344C0.136597 13.7188 0.136597 9.54688 0.136597 9.54688C0.136597 9.54688 0.136597 5.32812 0.699097 3.35938C0.980347 2.23438 1.87097 1.34375 2.9491 1.0625C4.96472 0.5 12.9803 0.5 12.9803 0.5C12.9803 0.5 20.9491 0.5 22.9647 1.0625C24.0428 1.34375 24.9335 2.23438 25.2147 3.35938ZM10.3553 13.3438L17.0116 9.54688L10.3553 5.75V13.3438Z" fill="#F5F5F5"/>
</svg>
